HIERARCHY
ROOT spine
{
	OFFSET 0.000000 0.154968 -0.263600
	CHANNELS 6 Xposition Yposition Zposition Xrotation Yrotation Zrotation
	JOINT spine.001
	{
		OFFSET 0.000893 -0.026998 0.408610
		CHANNELS 6 Xposition Yposition Zposition Xrotation Yrotation Zrotation
		JOINT spine.002
		{
			OFFSET -0.001786 0.013532 0.362280
			CHANNELS 6 Xposition Yposition Zposition Xrotation Yrotation Zrotation
			JOINT spine.003
			{
				OFFSET 0.000893 0.042056 0.425966
				CHANNELS 3 Xrotation Yrotation Zrotation
				JOINT spine.004
				{
					OFFSET 0.000000 -0.005392 0.472255
					CHANNELS 6 Xposition Yposition Zposition Xrotation Yrotation Zrotation
					JOINT spine.005
					{
						OFFSET 0.000000 -0.061434 0.155824
						CHANNELS 3 Xrotation Yrotation Zrotation
						JOINT spine.006
						{
							OFFSET 0.000000 -0.032455 0.150272
							CHANNELS 3 Xrotation Yrotation Zrotation
							End Site
							{
								OFFSET 0.000000 -0.001669 -0.000146
							}
						}
						End Site
						{
							OFFSET 0.000000 -0.000131 0.002509
						}
					}
				}
				JOINT shoulder.R
				{
					OFFSET -0.043345 -0.202788 0.335669
					CHANNELS 6 Xposition Yposition Zposition Xrotation Yrotation Zrotation
					JOINT upper_arm.R
					{
						OFFSET -0.519228 0.179734 -0.036948
						CHANNELS 6 Xposition Yposition Zposition Xrotation Yrotation Zrotation
						JOINT forearm.R
						{
							OFFSET -0.528523 -0.077251 -0.416569
							CHANNELS 6 Xposition Yposition Zposition Xrotation Yrotation Zrotation
							JOINT hand.R
							{
								OFFSET -0.481050 -0.042096 -0.445385
								CHANNELS 6 Xposition Yposition Zposition Xrotation Yrotation Zrotation
								JOINT f_index.01.R
								{
									OFFSET -0.213527 -0.126870 -0.176361
									CHANNELS 3 Xrotation Yrotation Zrotation
									JOINT f_index.02.R
									{
										OFFSET -0.048221 -0.023698 -0.075329
										CHANNELS 3 Xrotation Yrotation Zrotation
										JOINT f_index.03.R
										{
											OFFSET -0.015178 -0.033369 -0.084421
											CHANNELS 3 Xrotation Yrotation Zrotation
											End Site
											{
												OFFSET -0.015179 -0.033369 -0.084421
											}
										}
									}
								}
								JOINT f_middle.01.R
								{
									OFFSET -0.221745 -0.075394 -0.180233
									CHANNELS 3 Xrotation Yrotation Zrotation
									JOINT f_middle.02.R
									{
										OFFSET -0.053046 -0.019683 -0.094497
										CHANNELS 3 Xrotation Yrotation Zrotation
										JOINT f_middle.03.R
										{
											OFFSET -0.010312 -0.033905 -0.110493
											CHANNELS 3 Xrotation Yrotation Zrotation
											End Site
											{
												OFFSET -0.010313 -0.033905 -0.110493
											}
										}
									}
								}
								JOINT f_ring.01.R
								{
									OFFSET -0.229786 -0.013812 -0.181801
									CHANNELS 3 Xrotation Yrotation Zrotation
									JOINT f_ring.02.R
									{
										OFFSET -0.039133 -0.012376 -0.107531
										CHANNELS 3 Xrotation Yrotation Zrotation
										JOINT f_ring.03.R
										{
											OFFSET -0.014465 -0.020186 -0.076705
											CHANNELS 3 Xrotation Yrotation Zrotation
											End Site
											{
												OFFSET -0.014466 -0.020185 -0.076705
											}
										}
									}
								}
								JOINT f_pinky.01.R
								{
									OFFSET -0.227986 0.047728 -0.194863
									CHANNELS 3 Xrotation Yrotation Zrotation
									JOINT f_pinky.02.R
									{
										OFFSET -0.025024 0.006131 -0.071314
										CHANNELS 3 Xrotation Yrotation Zrotation
										JOINT f_pinky.03.R
										{
											OFFSET -0.012918 -0.013342 -0.075488
											CHANNELS 3 Xrotation Yrotation Zrotation
											End Site
											{
												OFFSET -0.012919 -0.013342 -0.075488
											}
										}
									}
								}
								JOINT thumb.01.R
								{
									OFFSET -0.027674 -0.089158 -0.093039
									CHANNELS 3 Xrotation Yrotation Zrotation
									JOINT thumb.02.R
									{
										OFFSET -0.032825 -0.062806 -0.081582
										CHANNELS 3 Xrotation Yrotation Zrotation
										JOINT thumb.03.R
										{
											OFFSET -0.041249 -0.020716 -0.071132
											CHANNELS 3 Xrotation Yrotation Zrotation
											End Site
											{
												OFFSET -0.041250 -0.020716 -0.071132
											}
										}
									}
								}
							}
						}
					}
				}
				JOINT shoulder.L
				{
					OFFSET 0.043345 -0.202788 0.335668
					CHANNELS 6 Xposition Yposition Zposition Xrotation Yrotation Zrotation
					JOINT upper_arm.L
					{
						OFFSET 0.519228 0.179734 -0.036948
						CHANNELS 6 Xposition Yposition Zposition Xrotation Yrotation Zrotation
						JOINT forearm.L
						{
							OFFSET 0.528523 -0.077252 -0.416569
							CHANNELS 6 Xposition Yposition Zposition Xrotation Yrotation Zrotation
							JOINT hand.L
							{
								OFFSET 0.481049 -0.042096 -0.445384
								CHANNELS 6 Xposition Yposition Zposition Xrotation Yrotation Zrotation
								JOINT f_index.01.L
								{
									OFFSET 0.213527 -0.126870 -0.176361
									CHANNELS 3 Xrotation Yrotation Zrotation
									JOINT f_index.02.L
									{
										OFFSET 0.048221 -0.023698 -0.075329
										CHANNELS 3 Xrotation Yrotation Zrotation
										JOINT f_index.03.L
										{
											OFFSET 0.015178 -0.033370 -0.084421
											CHANNELS 3 Xrotation Yrotation Zrotation
											End Site
											{
												OFFSET 0.015178 -0.033370 -0.084420
											}
										}
									}
								}
								JOINT f_middle.01.L
								{
									OFFSET 0.221745 -0.075394 -0.180233
									CHANNELS 3 Xrotation Yrotation Zrotation
									JOINT f_middle.02.L
									{
										OFFSET 0.053045 -0.019683 -0.094497
										CHANNELS 3 Xrotation Yrotation Zrotation
										JOINT f_middle.03.L
										{
											OFFSET 0.010312 -0.033905 -0.110494
											CHANNELS 3 Xrotation Yrotation Zrotation
											End Site
											{
												OFFSET 0.010313 -0.033906 -0.110493
											}
										}
									}
								}
								JOINT f_ring.01.L
								{
									OFFSET 0.229786 -0.013812 -0.181801
									CHANNELS 3 Xrotation Yrotation Zrotation
									JOINT f_ring.02.L
									{
										OFFSET 0.039134 -0.012376 -0.107530
										CHANNELS 3 Xrotation Yrotation Zrotation
										JOINT f_ring.03.L
										{
											OFFSET 0.014464 -0.020186 -0.076705
											CHANNELS 3 Xrotation Yrotation Zrotation
											End Site
											{
												OFFSET 0.014465 -0.020186 -0.076705
											}
										}
									}
								}
								JOINT f_pinky.01.L
								{
									OFFSET 0.227987 0.047728 -0.194862
									CHANNELS 3 Xrotation Yrotation Zrotation
									JOINT f_pinky.02.L
									{
										OFFSET 0.025023 0.006131 -0.071314
										CHANNELS 3 Xrotation Yrotation Zrotation
										JOINT f_pinky.03.L
										{
											OFFSET 0.012918 -0.013342 -0.075488
											CHANNELS 3 Xrotation Yrotation Zrotation
											End Site
											{
												OFFSET 0.012920 -0.013342 -0.075487
											}
										}
									}
								}
								JOINT thumb.01.L
								{
									OFFSET 0.027674 -0.089159 -0.093039
									CHANNELS 3 Xrotation Yrotation Zrotation
									JOINT thumb.02.L
									{
										OFFSET 0.032825 -0.062806 -0.081582
										CHANNELS 3 Xrotation Yrotation Zrotation
										JOINT thumb.03.L
										{
											OFFSET 0.041249 -0.020716 -0.071132
											CHANNELS 3 Xrotation Yrotation Zrotation
											End Site
											{
												OFFSET 0.041250 -0.020716 -0.071132
											}
										}
									}
								}
							}
						}
					}
				}
			}
		}
	}
	JOINT thigh.R
	{
		OFFSET -0.264550 -0.101375 0.220597
		CHANNELS 6 Xposition Yposition Zposition Xrotation Yrotation Zrotation
		JOINT shin.R
		{
			OFFSET -0.036635 -0.070848 -1.193411
			CHANNELS 6 Xposition Yposition Zposition Xrotation Yrotation Zrotation
			JOINT foot.R
			{
				OFFSET -0.072166 0.106113 -1.145243
				CHANNELS 3 Xrotation Yrotation Zrotation
				JOINT toe.R
				{
					OFFSET 0.001766 -0.383954 -0.117691
					CHANNELS 6 Xposition Yposition Zposition Xrotation Yrotation Zrotation
					End Site
					{
						OFFSET 0.001766 -0.383955 -0.117692
					}
				}
			}
		}
	}
	JOINT thigh.L
	{
		OFFSET 0.264550 -0.101375 0.220597
		CHANNELS 6 Xposition Yposition Zposition Xrotation Yrotation Zrotation
		JOINT shin.L
		{
			OFFSET 0.036635 -0.070848 -1.193411
			CHANNELS 6 Xposition Yposition Zposition Xrotation Yrotation Zrotation
			JOINT foot.L
			{
				OFFSET 0.072166 0.106112 -1.145242
				CHANNELS 3 Xrotation Yrotation Zrotation
				JOINT toe.L
				{
					OFFSET -0.001766 -0.383951 -0.117693
					CHANNELS 6 Xposition Yposition Zposition Xrotation Yrotation Zrotation
					End Site
					{
						OFFSET -0.001765 -0.383952 -0.117694
					}
				}
			}
		}
	}
}
MOTION
Frames: 4
Frame Time:	0.016667
-0.6317 -0.7449 2.2532 -0.1994 -11.1207 -14.0812 0.0047 -0.0282 0.4062 -5.7524 0.5363 -3.9686 0.0051 0.0097 0.3635 -6.8086 0.0201 -10.7726 0 0 0 0 -0.0007 0.4695 -22.8696 -4.7481 13.5316 45.0401 10.1473 13.851 0 0 0 -0.0433 -0.1983 0.3342 -4.5169 -11.8009 1.7726 -0.5192 0.1797 -0.0369 4.0648 -44.2614 36.2857 -0.5285 -0.0773 -0.4166 -53.1436 -44.5108 86.0716 -0.4811 -0.0421 -0.4454 37.2659 2.8933 -71.4363 7.5401 -45.0188 14.2971 17.49 -41.5748 9.06 17.5933 -44.5774 15.7358 17.4644 -69.0117 27.9303 53.0329 -67.7603 47.779 90.8022 -67.3663 93.009 -1.0962 -59.7774 2.3578 75.6134 -75.3191 71.3015 -70.8841 -108.7371 -69.0176 -21.361 -49.5312 -10.2526 32.6065 -77.1939 23.0057 82.955 -80.8987 85.0076 9.2419 -12.8798 6.0809 23.5142 5.0961 -20.3949 47.7972 2.7125 -38.0883 0.0433 -0.1983 0.3325 -4.3562 11.9011 -0.9476 0.5192 0.1797 -0.0369 20.9138 58.1218 -2.8266 0.5285 -0.0773 -0.4166 -17.4235 37.1476 -117.3731 0.481 -0.0421 -0.4454 60.0868 -30.362 13.9525 7.5405 45.0193 -14.2975 17.4902 41.5759 -9.0607 17.5923 44.5768 -15.7349 17.4638 69.0115 -27.9297 53.0368 67.7613 -47.7832 90.7992 67.3668 -93.006 -1.0961 59.7783 -2.3579 75.6088 75.3191 -71.2972 -70.8782 108.7383 69.0111 -21.3599 49.5299 10.2521 32.6036 77.1923 -23.0028 82.9596 80.8986 -85.0128 3.5075 8.3868 -0.574 23.5151 -5.0964 20.3958 47.7977 -2.7124 38.0883 -0.2645 -0.1014 0.2206 -8.9422 8.9288 -4.6496 -0.0367 -0.0709 -1.1945 -8.6642 -1.8646 0.2349 11.6575 0.5765 3.1676 0.0018 -0.384 -0.1177 -6.3588 -0.1776 0.3846 0.2645 -0.1014 0.2206 6.8917 8.3424 3.1742 0.0366 -0.0708 -1.1934 27.0115 2.3876 1.3538 3.2333 -4.181 -3.372 -0.0018 -0.384 -0.1177 -37.4985 0.0089 0.0062 
-0.6284 -0.739 2.257 -0.1777 -11.1262 -13.9514 0.0044 -0.0281 0.4061 -5.8922 0.5063 -3.5887 0.0045 0.0098 0.3634 -6.9425 0.0045 -9.7723 0 0 0 0 -0.0007 0.4695 -22.8775 -4.5984 13.0453 45.8676 10.4841 13.2539 0 0 0 -0.0433 -0.1983 0.3337 -4.5843 -11.8482 1.9895 -0.5192 0.1797 -0.0369 7.6317 -47.6858 38.2274 -0.5285 -0.0773 -0.4166 -51.9036 -43.3815 85.2923 -0.4811 -0.0421 -0.4454 38.0022 4.1783 -68.8413 7.5401 -45.0188 14.2972 17.4901 -41.5748 9.06 17.5933 -44.5774 15.7358 17.4645 -69.0117 27.9302 53.0329 -67.7602 47.779 90.8023 -67.3663 93.009 -1.0962 -59.7774 2.3578 75.6134 -75.3191 71.3015 -70.8841 -108.7371 -69.0176 -21.3609 -49.5312 -10.2526 32.6066 -77.1938 23.0056 82.955 -80.8987 85.0075 9.2419 -12.8798 6.0809 23.5142 5.0961 -20.3949 47.7972 2.7125 -38.0883 0.0433 -0.1983 0.3325 -4.3155 11.8862 -0.8007 0.5192 0.1797 -0.0369 19.4108 57.1623 -1.773 0.5285 -0.0773 -0.4166 -19.3646 37.9722 -117.0463 0.481 -0.0421 -0.4454 60.6664 -27.3434 13.9664 7.5404 45.0193 -14.2975 17.4902 41.5759 -9.0607 17.5922 44.5767 -15.7349 17.4636 69.0115 -27.9297 53.0367 67.7613 -47.7832 90.7992 67.3668 -93.0059 -1.0961 59.7783 -2.358 75.6087 75.319 -71.2971 -70.8781 108.7383 69.0111 -21.36 49.5299 10.2521 32.6035 77.1924 -23.0028 82.9595 80.8986 -85.0126 3.5075 8.3868 -0.574 23.5151 -5.0964 20.3958 47.7978 -2.7124 38.0883 -0.2645 -0.1014 0.2206 -8.9754 8.9793 -4.5039 -0.0367 -0.0709 -1.1947 -8.6662 -1.8646 0.235 12.1985 0.6005 3.1531 0.0018 -0.384 -0.1177 -7.078 -0.1992 0.429 0.2645 -0.1014 0.2206 6.9331 8.0484 3.8035 0.0366 -0.0708 -1.1934 26.7125 2.4304 1.3349 3.2468 -4.2646 -3.187 -0.0018 -0.384 -0.1177 -37.1776 0.0068 0.0045 
-0.6224 -0.7296 2.2602 -0.0736 -11.1765 -13.344 0.0039 -0.0281 0.4059 -6.0736 0.6295 -3.0813 0.0036 0.0099 0.3633 -7.1104 0.1625 -8.4162 0 0 0 0 -0.0007 0.4695 -22.9105 -4.2939 12.0472 46.6377 10.1063 12.211 0 0 0 -0.0433 -0.1983 0.3335 -4.6393 -11.8941 2.1553 -0.5192 0.1797 -0.0369 10.9546 -50.228 40.2021 -0.5285 -0.0773 -0.4166 -51.0972 -42.2826 84.0226 -0.4811 -0.0421 -0.4454 38.2208 6.363 -67.56 7.5401 -45.0188 14.2972 17.49 -41.5748 9.0599 17.5933 -44.5774 15.7358 17.4644 -69.0117 27.9303 53.0329 -67.7603 47.779 90.8022 -67.3662 93.009 -1.0963 -59.7774 2.3578 75.6135 -75.3191 71.3016 -70.8842 -108.7371 -69.0176 -21.361 -49.5312 -10.2527 32.6067 -77.1938 23.0057 82.9551 -80.8987 85.0076 9.2419 -12.8798 6.0809 23.5142 5.0961 -20.3949 47.7973 2.7125 -38.0883 0.0433 -0.1983 0.3325 -4.2806 11.8723 -0.6788 0.5192 0.1797 -0.0369 17.8434 55.9336 -0.8238 0.5285 -0.0773 -0.4166 -21.552 38.9574 -116.9688 0.4811 -0.0421 -0.4454 62.0044 -23.0394 13.7398 7.5405 45.0193 -14.2975 17.4902 41.5759 -9.0607 17.5923 44.5767 -15.7349 17.4637 69.0115 -27.9297 53.0368 67.7613 -47.7832 90.7991 67.3668 -93.0058 -1.0961 59.7783 -2.358 75.6088 75.319 -71.2972 -70.8782 108.7383 69.0112 -21.36 49.5299 10.2521 32.6036 77.1924 -23.0028 82.9595 80.8986 -85.0125 3.5075 8.3868 -0.574 23.515 -5.0964 20.3958 47.7978 -2.7124 38.0883 -0.2645 -0.1014 0.2206 -8.8067 9.1016 -3.5274 -0.0367 -0.0709 -1.1948 -8.6673 -1.8647 0.235 12.8033 0.5105 3.4146 0.0018 -0.384 -0.1177 -7.6502 -0.2345 0.4876 0.2645 -0.1014 0.2206 7.6247 7.7372 5.5743 0.0366 -0.0708 -1.1934 23.8236 2.531 1.214 3.9457 -4.67 -2.8453 -0.0018 -0.384 -0.1177 -36.0732 0.0264 0.0123 
-0.6175 -0.722 2.2618 -0.0213 -11.2013 -13.0402 0.0036 -0.0281 0.4058 -6.1817 0.7136 -2.8289 0.0032 0.01 0.3632 -7.213 0.2631 -7.7393 0 0 0 0 -0.0007 0.4695 -22.9271 -4.1455 11.5541 46.9524 9.737 11.7238 0 0 0 -0.0433 -0.1983 0.3339 -4.6967 -11.9365 2.3313 -0.5192 0.1797 -0.0369 13.8875 -51.9998 42.6275 -0.5285 -0.0773 -0.4166 -50.3492 -41.2351 82.5723 -0.4811 -0.0421 -0.4454 38.3553 8.6757 -66.548 7.5402 -45.0188 14.2971 17.49 -41.5748 9.06 17.5933 -44.5774 15.7358 17.4644 -69.0117 27.9304 53.0329 -67.7603 47.7791 90.8022 -67.3662 93.009 -1.0962 -59.7774 2.3578 75.6134 -75.3191 71.3015 -70.8841 -108.7371 -69.0176 -21.3609 -49.5312 -10.2526 32.6065 -77.1939 23.0058 82.9547 -80.8987 85.0075 9.2419 -12.8798 6.0809 23.5142 5.0961 -20.3949 47.7972 2.7125 -38.0883 0.0433 -0.1983 0.3325 -4.2516 11.8608 -0.5755 0.5192 0.1797 -0.0369 16.4015 54.5245 0.0703 0.5285 -0.0773 -0.4166 -23.6772 40.0453 -116.8651 0.481 -0.0421 -0.4454 62.8581 -19.3114 13.4504 7.5404 45.0193 -14.2975 17.4902 41.5759 -9.0607 17.5922 44.5767 -15.7349 17.4637 69.0115 -27.9297 53.0368 67.7613 -47.7832 90.7992 67.3667 -93.0059 -1.0961 59.7783 -2.358 75.6088 75.319 -71.2972 -70.8782 108.7383 69.0112 -21.36 49.5299 10.2521 32.6036 77.1924 -23.0028 82.9596 80.8986 -85.0126 3.5075 8.3868 -0.574 23.5151 -5.0964 20.3958 47.7978 -2.7124 38.0883 -0.2645 -0.1014 0.2206 -8.7194 9.1665 -3.0408 -0.0367 -0.0709 -1.1948 -8.6678 -1.8647 0.235 13.0547 0.4529 3.5509 0.0018 -0.384 -0.1177 -7.8886 -0.2432 0.5153 0.2645 -0.1014 0.2206 7.9476 7.5859 6.4642 0.0366 -0.0708 -1.1934 22.4399 2.63 1.1439 4.2549 -4.8881 -2.6767 -0.0018 -0.384 -0.1177 -35.5085 0.0191 0.0087 
